<svg version="1.1" id="Layer_1" xmlns="http://www.w3.org/2000/svg" xmlns:xlink="http://www.w3.org/1999/xlink" x="0px" y="0px"
	 width="100%" viewBox="0 0 336 272" enable-background="new 0 0 336 272" xml:space="preserve">
<path fill="#000000" opacity="1.000000" stroke="none" 
	d="
M337.000000,82.533882 
	C332.248474,90.464722 324.550964,93.787491 316.918579,97.119980 
	C312.087097,99.229515 308.652466,102.207840 307.032745,107.549355 
	C305.837555,111.490921 303.565277,115.367050 300.306458,117.931709 
	C291.116394,125.164253 286.806244,135.553391 283.991821,145.937485 
	C280.856781,157.504517 274.081665,166.860840 269.099030,177.277405 
	C265.303833,185.211594 261.489288,193.133301 257.890411,201.168365 
	C254.384323,208.996185 249.496674,216.408127 241.918732,221.227570 
	C239.145279,222.991440 237.811188,225.180466 238.404083,228.258636 
	C239.455124,233.715317 238.890549,239.535751 242.609207,244.412766 
	C244.784363,247.265533 243.521896,249.718903 240.404648,251.269043 
	C236.959366,252.982269 235.808044,250.965302 234.608871,248.162994 
	C233.046692,244.512390 233.857727,240.218353 231.195206,236.865845 
	C230.235519,235.657471 233.074997,234.965118 232.035309,233.083435 
	C230.944473,231.994476 229.062134,234.109207 227.633972,232.600037 
	C228.351395,230.827896 231.337402,231.054779 231.393356,227.834625 
	C226.011078,228.207962 221.030640,230.355057 216.821152,232.841553 
	C210.822250,236.385010 204.846573,235.138809 198.800797,234.921310 
	C196.692825,234.845474 194.523804,234.293716 192.372910,234.406082 
	C184.964676,234.793060 180.007675,231.379395 177.018799,224.771271 
	C174.689392,219.621201 172.507812,214.396439 169.973770,209.348846 
	C167.288559,204.000122 167.430862,198.889908 170.502274,193.585007 
	C172.941513,195.345764 172.454575,197.935867 172.224335,200.236267 
	C170.605988,216.405334 185.240768,230.181824 201.115967,228.983536 
	C214.007721,228.010483 225.183533,222.517853 236.612793,217.911530 
	C243.907959,214.971375 249.473816,208.735275 252.052582,200.478882 
	C256.142181,187.385300 262.211761,175.216812 270.463409,164.200424 
	C272.143555,161.957336 273.432190,159.648102 271.863708,156.870193 
	C270.250153,154.012527 272.795715,151.609970 274.004547,150.973465 
	C276.345917,149.740616 276.999878,147.996796 277.576843,145.977158 
	C280.593323,135.418762 285.531372,125.929207 292.977661,117.800926 
	C293.202484,117.555496 293.610931,117.304398 293.612427,117.054001 
	C293.640137,112.460495 298.164886,110.717529 299.865570,107.058601 
	C304.666290,96.730019 314.680420,92.070412 323.873260,86.842781 
	C326.966614,85.083717 329.438110,82.678574 331.674896,80.388863 
	C334.462067,77.535721 333.262665,73.555046 330.540222,70.485023 
	C322.499237,61.417431 312.388184,57.801216 300.495331,59.521091 
	C295.568542,60.233578 290.605896,61.490696 286.284943,64.031723 
	C274.415741,71.011635 268.461426,74.909248 271.050201,90.370491 
	C268.056549,87.344147 265.989197,88.755501 263.617279,90.791695 
	C258.544556,95.146439 253.560760,99.498711 249.894730,105.207253 
	C246.921585,109.836906 245.818161,114.409737 248.226120,119.717911 
	C249.323502,122.137016 251.087204,124.919243 248.500031,128.867569 
	C246.138626,124.403099 246.181320,119.712662 242.485611,116.817879 
	C240.810455,117.403511 240.396347,119.705536 238.783081,120.746002 
	C236.954620,117.146858 235.242447,122.011429 232.834305,120.175598 
	C231.452957,118.353798 232.466583,117.174965 235.132462,116.341011 
	C239.614777,114.938835 240.368881,112.112312 238.609207,107.820175 
	C232.552856,93.047920 225.850525,78.566330 218.999542,64.160843 
	C215.800278,57.433807 208.638016,57.660122 202.564621,56.503643 
	C199.670288,55.952518 196.575562,56.272118 193.585510,56.442051 
	C186.655823,56.835888 180.705948,61.930916 180.467010,68.566544 
	C179.986633,81.907539 177.110550,94.913040 175.611954,108.103745 
	C175.446564,109.559547 174.768967,111.389618 176.272568,112.266945 
	C177.895599,113.213974 177.860931,113.778236 176.897598,115.217003 
	C175.363663,117.507988 177.419647,118.366394 179.087570,119.326324 
	C174.880493,127.397438 180.969757,133.282333 182.437088,140.081192 
	C188.260056,139.318863 192.088943,132.336548 198.083527,137.326828 
	C197.282715,138.923325 195.947617,138.326035 194.881500,138.476410 
	C186.038101,139.723785 182.289490,148.373627 187.425690,155.722031 
	C190.280441,159.806351 197.453384,161.035477 202.346832,158.278839 
	C212.591293,152.507843 216.253769,142.781403 213.207901,129.435120 
	C211.865692,123.553902 212.091156,110.904793 213.562714,104.787102 
	C214.816345,99.575455 215.129364,94.267654 215.072266,88.917877 
	C215.049988,86.829384 214.564896,84.596024 216.335648,82.411987 
	C220.799973,88.180130 218.168243,94.493965 218.207642,100.360855 
	C219.814316,101.372185 219.775833,98.603416 221.263748,99.430046 
	C221.263748,99.834465 221.355789,100.334862 221.248840,100.788322 
	C220.548111,103.759331 219.159927,106.537788 217.280762,108.787735 
	C214.143982,112.543411 215.390152,117.129501 214.302948,121.243637 
	C213.627808,123.798378 215.532318,125.263336 219.632584,123.917679 
	C216.146912,128.251434 216.493637,131.737671 217.126740,135.613663 
	C218.200195,142.185745 216.599503,148.552704 213.343781,154.375458 
	C209.233139,161.727173 200.185959,165.121292 191.208633,162.852051 
	C183.496140,160.902527 179.945847,162.475388 176.476852,169.575684 
	C175.102402,172.388931 173.977280,175.323990 172.503616,178.749969 
	C170.544098,175.107391 172.947098,172.620438 173.889954,170.099136 
	C175.056961,166.978546 174.847092,165.489410 171.072556,165.237579 
	C166.814026,164.953461 163.788208,162.256241 161.183884,159.078522 
	C159.824997,157.420441 158.716537,155.476715 156.429352,154.770767 
	C154.234055,155.293793 153.511078,157.337341 152.330475,158.874817 
	C148.113770,164.366211 144.585968,165.530151 137.981018,163.300125 
	C136.104965,162.666733 134.145538,161.936096 132.585388,160.767883 
	C123.495430,153.961563 114.825737,146.648972 106.803925,138.592834 
	C105.124710,136.906448 104.293526,134.858063 103.554466,132.568542 
	C99.066734,118.665993 97.806259,104.181511 95.777710,89.857536 
	C94.238968,78.992180 86.952477,72.343956 79.587479,65.574280 
	C78.028999,64.141769 76.654327,64.795280 75.391846,66.421097 
	C72.201431,53.526855 62.477058,45.780109 53.691883,37.354637 
	C52.920986,36.615303 51.526886,36.525784 50.027027,35.994423 
	C50.139061,33.174931 49.084045,30.373812 46.272354,28.359421 
	C43.430069,26.323109 41.152348,23.738079 38.833397,21.096992 
	C36.424782,18.353786 33.473305,15.674366 28.899569,17.056683 
	C23.434391,18.708416 19.226727,21.123444 18.383644,27.505913 
	C16.536266,41.491314 22.635008,51.648941 33.519417,59.463093 
	C34.785496,60.372040 35.091335,61.175034 35.542179,62.430801 
	C38.633190,71.040352 43.935413,78.296501 50.286293,84.700081 
	C54.983547,89.436310 57.831669,89.382812 62.617825,84.921082 
	C65.881332,81.878799 69.379997,78.963974 71.605591,74.935921 
	C72.046677,74.137619 72.431053,73.089355 74.064842,73.180168 
	C73.463425,79.301857 68.972633,82.644775 64.950996,86.128265 
	C58.087570,92.073265 58.198879,91.814301 63.608665,99.244675 
	C67.812622,105.018845 71.357536,111.268913 75.323105,117.222374 
	C77.026031,119.778961 78.766846,122.801025 84.083046,119.037323 
	C77.477585,130.693207 82.960831,139.259872 87.425125,147.903870 
	C90.589890,154.031631 91.891693,160.717606 94.034790,167.156860 
	C99.016449,182.125000 104.652435,196.880615 110.241608,211.639664 
	C115.003670,224.214600 130.669464,230.934525 142.953888,229.359512 
	C147.355469,228.795151 151.824371,228.889145 155.980743,226.905746 
	C157.129395,226.357620 158.580231,226.616486 159.617630,227.439575 
	C160.851898,231.489716 153.538727,230.411514 155.482773,235.059082 
	C152.427948,235.242981 149.323212,235.429886 145.869507,235.637802 
	C144.149475,243.563843 145.333542,251.229507 146.776993,258.848938 
	C147.143158,260.781769 147.825851,262.534668 145.459045,263.418549 
	C143.267883,264.236847 141.428665,267.177856 138.795502,265.371307 
	C136.884537,264.060272 136.827026,261.670105 137.504700,259.424835 
	C139.175583,253.888626 138.711319,248.191788 138.594315,242.548920 
	C138.509140,238.441559 136.619843,236.158890 132.103653,235.198608 
	C121.071587,232.852859 112.255714,227.328339 107.136520,216.545700 
	C99.543991,200.553421 93.680534,183.980637 89.076942,166.927063 
	C87.766945,162.074280 85.681602,157.701736 82.946381,153.395020 
	C78.577461,146.516022 74.965179,139.093521 75.706100,130.486847 
	C76.035004,126.666252 74.271461,123.768074 71.990807,121.009010 
	C66.154427,113.948280 60.592052,106.702728 56.042648,98.705040 
	C54.744240,96.422493 53.123451,94.066025 51.068104,92.515419 
	C41.605625,85.376671 35.809811,75.681328 30.428352,65.393433 
	C27.953272,60.661739 23.370108,57.063465 19.931742,52.798943 
	C11.130689,41.883213 10.124062,30.047541 16.907408,19.029509 
	C22.302599,10.266226 32.657433,8.916355 39.897823,15.983404 
	C52.244858,28.034843 64.277649,40.353863 75.295601,53.679691 
	C80.674583,60.185387 87.082062,65.834587 92.923157,71.967514 
	C95.093964,74.246796 96.912697,74.749207 99.688812,72.664307 
	C103.408951,69.870430 107.671600,67.913513 112.024902,66.172432 
	C117.817879,63.855560 123.011993,63.932587 127.491982,68.923805 
	C128.448441,69.989410 129.858505,70.647881 131.669769,71.923706 
	C136.327087,64.155518 140.739990,56.283352 150.989944,55.556606 
	C159.423004,54.958683 168.146561,51.792892 175.348297,58.990532 
	C175.801529,58.869007 176.284225,58.887032 176.407333,58.685455 
	C183.048477,47.810173 193.359131,49.630581 203.439468,50.964867 
	C206.702393,51.396763 209.853226,52.730225 213.117126,53.088890 
	C220.832397,53.936718 225.272324,58.712242 227.097382,65.530388 
	C230.434387,77.996864 238.405548,87.853928 244.494766,98.942619 
	C247.424850,98.496315 248.463104,95.896744 250.263000,94.360298 
	C257.623627,88.077103 264.023407,81.091545 268.664642,72.367149 
	C275.241089,60.004932 286.947662,56.120140 300.065369,54.570446 
	C314.521393,52.862640 325.896881,58.880844 336.720276,67.814178 
	C337.000000,72.689255 337.000000,77.378510 337.000000,82.533882 
M146.417068,63.981625 
	C141.332626,66.287209 138.466660,70.297836 137.225708,75.665993 
	C135.540451,82.956146 136.374222,90.200790 137.336197,97.470535 
	C138.227737,104.207825 138.960831,110.965981 139.835083,117.705688 
	C140.630371,123.836601 144.745560,128.673798 146.564163,134.576462 
	C148.305969,140.229904 154.332001,144.563385 158.424988,149.417542 
	C165.776428,144.657059 165.776428,144.657059 167.796524,146.697617 
	C163.899002,150.271820 163.765869,154.118378 167.397797,158.219803 
	C170.241379,161.431000 174.423218,161.875336 178.723526,159.570770 
	C182.736038,157.420425 183.294632,154.390793 181.769348,150.323318 
	C181.062241,148.437698 179.382965,146.921951 179.184097,145.101639 
	C178.347275,137.441757 175.661591,130.268906 173.793930,122.884621 
	C172.260895,116.823410 172.239700,110.762268 173.375244,104.619164 
	C175.243896,94.509865 175.168594,84.499458 171.285278,74.769180 
	C170.903717,73.813095 169.913086,72.713646 171.658401,71.770241 
	C173.654617,73.377464 173.682755,76.547852 176.119690,78.091286 
	C178.499359,69.435455 169.890518,58.626816 161.083435,60.446091 
	C156.387833,61.416054 151.595230,61.958527 146.417068,63.981625 
M113.424248,133.332260 
	C114.385605,133.730194 115.850822,133.236588 116.159866,134.809036 
	C112.546883,139.291672 114.101990,143.471817 120.187553,145.731049 
	C121.390511,146.177643 123.167603,145.890305 123.594757,147.382217 
	C125.376694,153.605911 130.885239,156.105469 135.713776,158.745392 
	C139.584488,160.861649 144.483719,162.790833 148.710083,158.733047 
	C154.064941,153.591766 154.231171,148.041977 149.388474,142.333038 
	C145.764740,138.061081 141.232666,134.544968 139.461563,128.810776 
	C135.570999,116.214539 133.162384,103.425430 133.651596,90.193939 
	C133.906570,83.298256 130.904907,78.043892 125.709335,73.827316 
	C120.361847,69.487442 114.695198,69.846756 108.976334,72.884743 
	C103.717079,75.678581 99.817039,79.360725 100.227516,86.100319 
	C100.649612,93.030930 100.294662,99.952797 101.306694,106.918365 
	C102.719345,116.641228 105.793213,125.765663 108.656502,134.716354 
	C110.766968,135.248901 111.512001,133.658356 113.424248,133.332260 
z"/>
<path fill="#000000" opacity="1.000000" stroke="none" 
	d="
M318.869202,84.877098 
	C315.811493,87.300659 313.466522,90.176834 309.615784,91.050774 
	C310.887573,86.821953 320.514008,80.248940 326.148682,80.063789 
	C323.471222,81.819763 321.309875,83.237267 318.869202,84.877098 
z"/>
<path fill="#000000" opacity="1.000000" stroke="none" 
	d="
M135.334381,153.602448 
	C133.789230,153.157761 132.180801,153.186081 132.793228,151.122452 
	C133.784622,147.781784 141.854553,142.433762 147.243835,142.366364 
	C141.783722,145.867050 137.459518,149.290878 139.951874,155.740387 
	C137.469498,156.672058 137.139175,154.084900 135.334381,153.602448 
z"/>
</svg>